<svg xmlns="http://www.w3.org/2000/svg" id="Capa_1" data-name="Capa 1" viewBox="0 0 672.93 88.96"><defs><style>.cls-3{fill:#fff}.cls-4{isolation:isolate}</style></defs><path fill="none" stroke="#4de4cf" stroke-miterlimit="10" stroke-width="2" d="M647.11 87.96H5.23V5.23H671.6l-24.49 82.73z"/><path fill="#0b1e23" d="M641.88 82.72H0V0h666.36l-24.48 82.72z"/><path d="M281.24 51.34c-5.27 0-8.5-4.42-8.5-9.21 0-5.06 2.89-9.12 8.45-9.12 4.08 0 7.23 2.44 7.49 5.87h-3.62c-.18-1.6-1.91-2.89-3.87-2.89-2.87 0-4.78 2.22-4.78 6.3 0 2.82 1.42 6 4.75 6 3.11 0 4.18-1.53 4.18-3.93h-3.8V41.5h7.16v3c0 4.08-1.73 6.93-7.46 6.93M290.77 33.39h3.36v17.36h-3.36zM295.72 43.4a6.53 6.53 0 015.62-5.65c4.48-.4 7.33 2.31 7.33 6.65 0 4-2.51 6.69-6.46 6.69-4.45 0-6.92-3.21-6.49-7.69m9.56 1c0-2.59-1-3.85-3.07-3.85s-3.07 1.26-3.08 3.84 1 3.88 3.08 3.88 3.07-1.3 3.07-3.88zM310.27 50.76V33.39h3.31v6.31a4.37 4.37 0 013.77-2c3.28 0 5.22 2.72 5.2 6.57 0 4.28-2.29 6.81-5.5 6.81a3.88 3.88 0 01-3.54-1.88v1.55zm8.89-6.25c0-2.61-.93-3.93-2.9-3.93s-2.81 1.37-2.81 4.13c0 2.15 1.24 3.65 2.84 3.65s2.87-1.58 2.87-3.85M332.52 50.77a4.87 4.87 0 01-.2-1.13 5.16 5.16 0 01-3.85 1.47c-2.89 0-4.24-1.43-4.24-3.49 0-3.67 2.46-4.08 5.84-4.55 1.68-.23 2.15-.56 2.15-1.44s-.83-1.32-2.15-1.32a2 2 0 00-2.28 1.69 1.49 1.49 0 000 .21h-3.13c.05-2.63 1.5-4.47 5.58-4.46s5.43 1.8 5.43 5v8zm-.23-6.22a4.31 4.31 0 01-2.17.74c-1.91.37-2.53.91-2.53 2s.56 1.42 1.62 1.43a2.92 2.92 0 003.05-2.72zM346.08 50.77v-7.7c0-2-.57-2.51-2.17-2.51-1.76 0-2.6 1-2.6 2.92v7.29h-3.37V38.06h3.21v1.86a4.23 4.23 0 014.1-2.2 3.92 3.92 0 014.21 3.6 3.42 3.42 0 010 .64v8.81zM359.12 46c-.08 1.4-.7 2.19-2 2.19s-1.94-.93-1.94-2.54v-5.2h5.21v-2.71h-5.2v-3.1h-3.31V46c0 2.74 1.47 5.12 5.19 5.12a4.77 4.77 0 005.14-4.33 4.82 4.82 0 000-.76zM366.29 32.46a.79.79 0 00-1.07.29.77.77 0 00-.07.61l1.5 2.23a13 13 0 010 14.44l-1.5 2.23a.79.79 0 00.49 1h.05a.74.74 0 00.6-.07l12.56-9.56a1 1 0 00.19-1.38l-.19-.19zM239 32.46a5.44 5.44 0 00-7.67 0 6.17 6.17 0 000 7.47 5.51 5.51 0 007.67 0 6.14 6.14 0 000-7.47m-2.08 6a2.32 2.32 0 01-3.27.25 3 3 0 01-.25-.25 3.76 3.76 0 01-.62-2.3 3.76 3.76 0 01.62-2.3 2.32 2.32 0 013.27-.25 3 3 0 01.25.25 3.75 3.75 0 01.61 2.3 3.82 3.82 0 01-.61 2.3M217.44 31.59a6.34 6.34 0 00-2.93-.65 4.3 4.3 0 00-3.57 1.32 3.77 3.77 0 00-.74 2.15h2.52a2 2 0 01.37-.92 1.71 1.71 0 011.33-.45 2.68 2.68 0 011.28.23.91.91 0 01.43.85.8.8 0 01-.57.74 4.84 4.84 0 01-1 .23l-.9.11a6.23 6.23 0 00-2.31.64 2.82 2.82 0 00-1.43 2.66 2.75 2.75 0 00.89 2.19 3.48 3.48 0 002.19.77c5.71.25 5.64-3 5.69-3.67V34a2.49 2.49 0 00-1.28-2.45m-1.32 5.68a2.1 2.1 0 01-.75 1.8 2.7 2.7 0 01-1.58.5 1.45 1.45 0 01-.92-.3 1.17 1.17 0 01-.38-1 1.2 1.2 0 01.62-1.1 4.16 4.16 0 011.2-.36l.6-.11a2.88 2.88 0 00.7-.18 2.41 2.41 0 00.51-.25zM204.42 33.17a1.69 1.69 0 011.44.61 2.3 2.3 0 01.4 1h2.82a3.91 3.91 0 00-1.49-3 5.81 5.81 0 00-3.25-.83 4.71 4.71 0 00-3.65 1.42 5.61 5.61 0 00-1.32 4 5.54 5.54 0 001.2 3.69 4.61 4.61 0 003.73 1.4 4.5 4.5 0 003.84-1.71 4.27 4.27 0 00.91-2.24h-2.81a2.46 2.46 0 01-.49 1.28 1.72 1.72 0 01-1.38.49 1.81 1.81 0 01-1.85-1.28 4.78 4.78 0 01-.28-1.76 5.19 5.19 0 01.28-1.83 1.88 1.88 0 011.9-1.31M193.17 41.26h2.63V36.4a4 4 0 01.3-1.77 2.15 2.15 0 012.11-1h.79V31h-.34c-5.79 0-5.45 5.1-5.45 5.1zM183.58 40.29a5.4 5.4 0 003.51 1.22 4.83 4.83 0 003.75-1.45 3.42 3.42 0 00.91-1.5H189a1.67 1.67 0 01-.36.39 2.27 2.27 0 01-1.47.4 2.45 2.45 0 01-1.4-.34 2.38 2.38 0 01-1.06-2.07H192a13.33 13.33 0 00-.09-2 4.87 4.87 0 00-.8-2 4 4 0 00-1.72-1.47A5.74 5.74 0 00187 31a4.81 4.81 0 00-3.56 1.38 5.35 5.35 0 00-1.38 4 4.79 4.79 0 001.53 4m1.86-6.61a2.11 2.11 0 011.55-.56 2.3 2.3 0 011.55.53 2.17 2.17 0 01.7 1.57h-4.5a2.8 2.8 0 01.7-1.54M178.6 35.25v6h2.4v-6c0-2.56-1.55-4.36-4.17-4.36a3.79 3.79 0 00-3 1.39 3.68 3.68 0 00-3-1.39 4.12 4.12 0 00-4.23 4c0 .12 0 .25 0 .37v6h2.4v-6a1.77 1.77 0 011.66-1.86h.16a1.66 1.66 0 011.76 1.6 1.43 1.43 0 010 .29v6H175v-6a1.77 1.77 0 011.66-1.86h.15a1.68 1.68 0 011.78 1.57 2.62 2.62 0 010 .28M226.6 29.67v2.79a3.08 3.08 0 00-1.14-1.1 3.22 3.22 0 00-1.61-.39 3.83 3.83 0 00-3.15 1.49 6.43 6.43 0 00-1.17 4.07 5.45 5.45 0 001.19 3.62 5.08 5.08 0 003.75 1.35c4.83 0 4.78-4.13 4.78-4.13v-9.51s-2.65-.28-2.65 1.84m-.5 8.85a1.91 1.91 0 01-1.68.82 1.86 1.86 0 01-1.66-.82 4.28 4.28 0 01-.54-2.27 4 4 0 01.53-2.14 1.81 1.81 0 011.68-.86 2 2 0 011.32.47 3.37 3.37 0 01.93 2.68 3.62 3.62 0 01-.58 2.12M201.23 48.17a4 4 0 00-1.71-1.46 5.67 5.67 0 00-2.33-.46 4.78 4.78 0 00-3.53 1.37 5.28 5.28 0 00-1.36 3.92 4.77 4.77 0 001.51 4 5.37 5.37 0 003.48 1.21 4.81 4.81 0 003.71-1.49 3.55 3.55 0 00.9-1.5h-2.76a2 2 0 01-.36.4 2.27 2.27 0 01-1.47.41 2.49 2.49 0 01-1.39-.33 2.37 2.37 0 01-1-2.08h7.2a14.14 14.14 0 00-.08-1.95 4.83 4.83 0 00-.79-2M195 50.46a2.76 2.76 0 01.69-1.52 2 2 0 011.54-.57 2.24 2.24 0 011.54.54 2.17 2.17 0 01.69 1.55zM175.27 46.58h2.61a.32.32 0 01.37.27c.63 2.13 1.27 4.27 1.91 6.4l.08.23c.36-1.17.7-2.29 1-3.41.26-.85.51-1.7.78-2.54a1.16 1.16 0 011.13-.92c.71 0 1.42 0 2.17 0-.05.13-.08.25-.12.37q-1.73 4.6-3.44 9.22a.37.37 0 01-.41.29c-.75 0-1.5 0-2.25 0a.29.29 0 01-.32-.22q-1.73-4.7-3.46-9.38a.74.74 0 00-.05-.31zM191.67 46.26c-5.79 0-5.45 5.1-5.45 5.1v5.1h2.63v-4.78a4 4 0 01.3-1.77 2.17 2.17 0 012.12-1h.73v-2.67h-.35M166.65 44.93v11.53h2.46v-13.4s-2.46-.09-2.46 1.88M171.13 43.04h2.64v2.6h-2.64zM171.13 46.53h2.64v9.94h-2.64zM158.86 41.85v-.52a.9.9 0 00-.05-.36v-.06a2.17 2.17 0 00-.07-.35v-.1a.59.59 0 00-.08-.36 1.61 1.61 0 00-.1-.36 1.24 1.24 0 00-.11-.36c-.08-.25-.17-.5-.27-.74a1 1 0 00-.16-.36c-.17-.37-.36-.74-.57-1.1a13 13 0 00-1.26-1.78 18.33 18.33 0 00-4.31-3.69 1.15 1.15 0 00.31-.83.92.92 0 00-.34-.77 1.19 1.19 0 00-.75-.25v-.07a1.09 1.09 0 00.19-.82c-.15-.76-1.11-1.35-1.75-1.74l-.35-.22c-1.29-1.11-2-1-2.44-.63a30.28 30.28 0 00-2.25 2.18 35.2 35.2 0 00-18.14.08c-1-1-2-1.94-2.34-2.26s-1.14-.48-2.44.63a2.46 2.46 0 01-.34.22c-.64.39-1.6 1-1.75 1.74a1 1 0 00.18.82v.07a1.22 1.22 0 00-.74.25.92.92 0 00-.34.77 1.12 1.12 0 00.46 1 16.12 16.12 0 00-5.78 6.1c0 .1-.09.19-.13.29v.09l-.12.27v.08a1.11 1.11 0 01-.14.35l-.11.3v.1a.36.36 0 01-.08.27v.09l-.09.35a.74.74 0 01-.07.32c-.07.11 0 .07 0 .1v2.87a13 13 0 003 8.2c.21.26.43.53.66.78l.07.08c3.94 4.26 10.84 7.07 19.72 7.07 14.33 0 23.4-7.22 23.4-16.13v-1.58zm-.91-.16a24.48 24.48 0 00-9.92.94 42.78 42.78 0 00-4.52 1.51 24.48 24.48 0 00.24-5.41 11.37 11.37 0 011-4.81l.08-.2a1.3 1.3 0 01.19-.37h.24a4 4 0 00.5.06 5.48 5.48 0 002.34-.66 3.6 3.6 0 01.78-.27 4.44 4.44 0 00.71-.21 3.86 3.86 0 01.49-.09 5.29 5.29 0 00.78-.13c4.08 2.43 6.73 5.82 7.09 9.61m-22.46-13.48a34.34 34.34 0 018.2 1L143 30a15.27 15.27 0 00-2.71 4.2l-.12.27c-.67 1.45-1.81 3.88-2.88 6.58-.17.41-.38.89-.61 1.4a22 22 0 00-1.34 3.43 21.63 21.63 0 00-1.3-3.38c-.23-.51-.45-1-.61-1.4-1.08-2.7-2.21-5.13-2.88-6.58l-.13-.27a15.62 15.62 0 00-2.7-4.2l-.66-.7a33.92 33.92 0 018.51-1.06M113 41.79v-.72a3.06 3.06 0 01.15-.73c0-.11 0-.21.08-.32V40a3.37 3.37 0 01.1-.34q.12-.36.27-.72l.15-.32c.06-.11.11-.22.16-.33a15.47 15.47 0 015.93-6c.19 0 .36.06.51.07a3.86 3.86 0 01.49.09 4.33 4.33 0 00.7.21 3.69 3.69 0 01.79.27 5.48 5.48 0 002.34.66 4 4 0 00.5-.06h.23s.07 0 .2.37l.07.2a11.37 11.37 0 011 4.81 24.42 24.42 0 00.24 5.4c-2.02-1.1-8.33-3.43-13.91-2.52zm2.67 7.57a10.78 10.78 0 01-2.67-5.82v-.92c6.49-1.1 14.39 2.56 14.47 2.6l.94.44-.38-1a19 19 0 01-.42-5.91 12.28 12.28 0 00-1.06-5.17l-.08-.2c-.36-.94-.82-.94-1.34-.85h-.38a4.38 4.38 0 01-1.93-.58 4.35 4.35 0 00-1-.33 3.86 3.86 0 01-.58-.17 2.42 2.42 0 00-.7-.14c-1-.13-1.27-.27-1.27-.62a.15.15 0 010-.13c.11-.09.42-.09.92 0h.11a4 4 0 01.69.24c.4.19.59.4 1 .24l.17-.06c.89-.32.89-.32 1.53.38s.92.69 1.32.47c-.51-.49-1.07-1-1.55-1.53s-.58-.85-.09-1.56l-.07-.1-.5.38-.3.28a1.8 1.8 0 01-.33-.4 2.34 2.34 0 00-.2-.58c0 .32-.06.64-.09 1l-.53.06.47.2a1.05 1.05 0 01-.06.33c.54-.36.86-.57 1.07.34-.4.12-.71.18-1.12.27a2.23 2.23 0 01-.91-.6l-.12-.12-.1-.1a4 4 0 01-.38-.54.22.22 0 010-.19c.08-.4 1-.94 1.37-1.19.2-.13.35-.22.45-.3.62-.54 1.18-.78 1.38-.62a65.5 65.5 0 013.63 3.61 15.15 15.15 0 012.56 4l.12.26c.67 1.45 1.8 3.87 2.86 6.54.17.44.4.92.63 1.44.89 2 2 4.37 1.25 5.65a2.44 2.44 0 01-2 1c-6.8.6-8.49.45-12.4-.07a19 19 0 01-2.13-.39 2.41 2.41 0 00-1.59 0 1.14 1.14 0 00-.62.48m38.71 1l-.22.21-.12.11-.14.13-.13.12-.23.2-.13.11-.15.13-.14.1-.24.2-.14.1a1.09 1.09 0 01-.17.13l-.13.1-.26.19-.15.1-.18.12-.13.09-.28.19-.15.09-.2.13-.15.09-.28.16-.15.09-.22.13-.17.09-.27.15-.15.07-.25.13-.17.08-.28.14-.15.07-.28.14-.16.07-.29.12h-.13l-.34.14h-.12l-.31.12-.14.06-.38.14h-.1l-.32.11-.14.05-.39.13h-.11l-.33.11h-.13l-.41.12h-.11l-.35.1h-.12l-.43.11h-.11l-.36.09h-.12l-.44.1h-.11l-.38.08h-.11l-.45.08h-.12l-.39.06h-.1l-.47.07h-.11l-.42.06H140l-.48.06h-.12l-.43.05H131.5l-.43-.05H131l-.48-.06h-.12l-.43-.07h-.06l-.48-.08h-.11l-.41-.08h-.07l-.47-.1h-.11l-.39-.09h-.08l-.45-.11h-.11l-.38-.09h-.09l-.44-.12h-.1l-.37-.11h-.09l-.42-.13h-.1l-.36-.12h-.09l-.41-.15h-.1l-.34-.13h-.09l-.4-.16h-.09l-.37-.24h-.1l-.38-.17h-.09l-.32-.14h-.09l-.37-.18h-.08l-.31-.16h-.09l-.36-.19h-.07l-.3-.17-.09-.05-.34-.2h-.07l-.28-.18-.09-.06-.33-.21h-.06l-.27-.19-.09-.06-.31-.22-.26-.2-.08-.06-.3-.23-.25-.21-.08-.06-.28-.25L117 51l-.08-.07-.26-.25-.23-.23c.11-.23.18-.31.32-.36.31-.11.47-.08 1.12.07a20.9 20.9 0 002.21.4c4 .53 5.7.68 12.58.07a3.22 3.22 0 002.67-1.37c.05-.08.09-.17.13-.25 0 .08.08.17.13.25a3.2 3.2 0 002.67 1.37c6.88.61 8.6.46 12.58-.07.74-.1 1.47-.23 2.2-.4s.82-.18 1.13-.07.25.18.44.62zm3.58-7.44c-.06.57-.18 1.44-.36 2.31a11.59 11.59 0 01-2.56 4.48 1.34 1.34 0 00-.77-.74 1.68 1.68 0 00-.63-.12 4.24 4.24 0 00-1 .15 19 19 0 01-2.13.39c-3.91.52-5.61.67-12.4.07a2.42 2.42 0 01-2-1c-.74-1.28.36-3.7 1.25-5.65.23-.52.45-1 .63-1.44 1.06-2.67 2.19-5.09 2.86-6.54l.12-.26a15.15 15.15 0 012.56-4 65.5 65.5 0 013.63-3.61c.2-.16.75.08 1.38.62a3.52 3.52 0 00.45.3c.42.25 1.29.79 1.37 1.19a.2.2 0 01-.06.19 4 4 0 01-.38.54l-.1.1-.12.12c-.33.3-.73.64-.91.6-.41-.09-.72-.15-1.12-.27.21-.91.53-.7 1.07-.34a.88.88 0 00-.06-.33l.46-.2-.52-.06c0-.35-.07-.67-.1-1a4 4 0 00-.2.58 1.76 1.76 0 01-.32.4l-.31-.28-.49-.38-.07.1c.48.71.5.87-.09 1.56A18.41 18.41 0 01145.5 32c.4.22.81.1 1.32-.47s.64-.7 1.53-.38l.17.06c.39.16.58-.05 1-.24a2.82 2.82 0 01.69-.24h.11c.5-.1.81-.1.92 0a.15.15 0 010 .13c0 .35-.3.49-1.27.62a2.42 2.42 0 00-.7.14 3.86 3.86 0 01-.58.17 4.35 4.35 0 00-1 .33 4.38 4.38 0 01-1.93.58h-.38c-.51-.09-1-.09-1.34.85l-.07.2a12.1 12.1 0 00-1.06 5.17 19 19 0 01-.42 5.91l-.37.94.92-.42c.09 0 8.43-3.75 14.93-2.69v.28" class="cls-3"/><g fill="#ccc" class="cls-4" font-family="Rubik-Regular,Rubik" font-size="18.19"><text letter-spacing="-.02em" style="isolation:isolate" transform="translate(40.89 48.71)">f</text><text letter-spacing="-.03em" style="isolation:isolate" transform="translate(47.86 48.71)">r</text><text style="isolation:isolate" transform="translate(54.53 48.71)">om</text></g><g fill="#ccc" class="cls-4" font-family="Rubik-Regular,Rubik" font-size="18.19"><text letter-spacing="-.02em" style="isolation:isolate" transform="translate(419.94 48.71)">b</text><text letter-spacing="-.06em" style="isolation:isolate" transform="translate(430.4 48.71)">y</text></g><path d="M472.46 30.8a3.85 3.85 0 00-2.82-1h-6.05a.37.37 0 00-.42.31.21.21 0 000 .11v16a.37.37 0 00.32.41h6.15a3.48 3.48 0 003.82-3.81v-9.7a2.65 2.65 0 00-1-2.3m-1.39 11.9a1.57 1.57 0 01-1.31 1.81 1.42 1.42 0 01-.46 0h-3.47a.24.24 0 01-.27-.18.14.14 0 010-.09V32.14c0-.16.08-.24.27-.24h3.47c1.18 0 1.77.08 1.77 1.29zM477.68 34.07h-1.57c-.26 0-.39.13-.39.41V46.2a.37.37 0 00.33.41h1.66a.48.48 0 00.31-.08.54.54 0 00.08-.33V34.46c0-.28-.14-.41-.42-.41M477.71 29.86h-1.6a.35.35 0 00-.39.3.33.33 0 000 .1V32c0 .27.13.41.39.41h1.6c.26 0 .39-.14.39-.41v-1.74a.35.35 0 00-.29-.4h-.1M489.47 34.07H484a3.49 3.49 0 00-3.82 3.13 3.86 3.86 0 000 .68v4.3a3.93 3.93 0 00.95 2.82 3.56 3.56 0 002.72 1H485a2.46 2.46 0 002.48-1.33h.1v1.87a1.59 1.59 0 01-1.79 1.82h-4.26a.37.37 0 00-.42.31.21.21 0 000 .11v1.28q0 .39.42.39h4.63a3.84 3.84 0 002.81-1 3.76 3.76 0 001-2.8V34.46c0-.28-.14-.41-.44-.41m-2 7.75a1.8 1.8 0 01-1.53 2.05 1.61 1.61 0 01-.49 0h-1.21c-1.16 0-1.74-.6-1.74-1.82V38c0-1.22.58-1.82 1.74-1.82h2.93q.27 0 .27.24zM494.12 29.86h-1.6a.35.35 0 00-.39.3.33.33 0 000 .1V32c0 .27.13.41.39.41h1.6a.36.36 0 00.4-.31.33.33 0 000-.1v-1.74a.36.36 0 00-.31-.4h-.09M494.1 34.07h-1.58c-.26 0-.39.13-.39.41V46.2a.37.37 0 00.32.41h1.67a.48.48 0 00.31-.08.43.43 0 00.08-.33V34.46a.36.36 0 00-.3-.41h-.11M502.59 44.52h-1a1.61 1.61 0 01-1.84-1.34 1.36 1.36 0 010-.45V36.4q0-.24.27-.24h2.29c.29 0 .44-.14.44-.4v-1.3c0-.28-.15-.41-.44-.41H500c-.18 0-.27-.09-.27-.25v-3.52a.37.37 0 00-.31-.42h-1.66c-.29 0-.44.14-.44.42v3.52a.22.22 0 01-.19.25h-1.23a.36.36 0 00-.41.3.21.21 0 000 .11v1.28a.43.43 0 00.08.31.47.47 0 00.33.09h1.18c.17 0 .25.08.25.24v6.45a3.65 3.65 0 001 2.78 4 4 0 002.86 1h1.33c.29 0 .44-.13.44-.39v-1.28c0-.28-.15-.42-.44-.42M513.49 34.07H508a3.46 3.46 0 00-3.82 3.06 3.14 3.14 0 000 .75v4.92a3.48 3.48 0 003.11 3.81 4.21 4.21 0 00.71 0h1a2.43 2.43 0 002.49-1.3h.1v.89a.37.37 0 00.32.41h1.65c.29 0 .44-.14.44-.41V34.46c0-.28-.15-.41-.44-.41m-2 8.36c0 1.4-.67 2.09-2 2.09h-1.18a1.59 1.59 0 01-1.78-1.36 1.42 1.42 0 010-.46V38a1.57 1.57 0 011.31-1.81 1.42 1.42 0 01.46 0h2.93q.27 0 .27.24zM518.11 29.84h-1.55a.37.37 0 00-.42.31.21.21 0 000 .11V46.2a.37.37 0 00.32.41h1.65a.37.37 0 00.42-.31v-16a.37.37 0 00-.31-.42.21.21 0 00-.11 0M530.88 29.81h-.71c-.16 0-.25.1-.25.29v7.71c0 .14-.08.22-.24.22h-6.89c-.17 0-.25-.08-.25-.22V30.1c0-.19-.09-.29-.27-.29h-.71c-.17 0-.25.1-.25.29v16.22c0 .2.08.29.25.29h.71c.18 0 .27-.09.27-.29v-7c0-.15.08-.23.25-.23h6.89a.21.21 0 01.24.18v7c0 .2.09.29.25.29h.71c.18 0 .27-.09.27-.29V30.1c0-.19-.09-.29-.27-.29M539.42 34.07h-2.12a3.41 3.41 0 00-2.52.93 3.5 3.5 0 00-.92 2.56v5.56a3.51 3.51 0 00.92 2.56 3.41 3.41 0 002.52.93h2.12a3.22 3.22 0 003.47-3 2.44 2.44 0 000-.54v-5.51a3.23 3.23 0 00-2.89-3.49h-.54m2.24 9a2.46 2.46 0 01-.6 1.78 2.34 2.34 0 01-1.74.63h-1.96a2.24 2.24 0 01-1.72-.63 2.5 2.5 0 01-.59-1.78v-5.52a2.5 2.5 0 01.59-1.78 2.24 2.24 0 011.72-.63h1.92a2.34 2.34 0 011.74.63 2.46 2.46 0 01.6 1.78zM553.86 34.07h-.71c-.18 0-.27.09-.27.29v8.74a2.33 2.33 0 01-.68 1.78 2.61 2.61 0 01-1.85.63h-1.6a2.27 2.27 0 01-1.73-.64 2.56 2.56 0 01-.59-1.8v-8.71c0-.2-.09-.29-.27-.29h-.71c-.16 0-.25.09-.25.29v8.76a3.55 3.55 0 00.91 2.56 3.33 3.33 0 002.49.93h1.62a2.57 2.57 0 002.56-1.28h.1v1c0 .2.09.29.27.29h.71c.17 0 .25-.09.25-.29v-12c0-.2-.08-.29-.25-.29M562.11 40.17L559 38.94a2.91 2.91 0 01-1.17-.67 1.53 1.53 0 01-.38-1.08v-.57a1.39 1.39 0 01.5-1 2.25 2.25 0 011.52-.44h3.86c.18 0 .27-.08.27-.25v-.56a.24.24 0 00-.18-.27h-4.09q-3.18 0-3.18 2.87a2.91 2.91 0 00.53 1.85 4.13 4.13 0 001.78 1.18l3.08 1.19a2 2 0 011.38 2.09v.59c0 1.15-.74 1.72-2.22 1.72h-4.1c-.19 0-.28.08-.28.25v.56c0 .19.09.27.28.27h4.28a3.78 3.78 0 002.54-.71 2.76 2.76 0 00.83-2.19 5 5 0 00-.43-2.3 2.77 2.77 0 00-1.71-1.24M571.75 34.07h-2.11a3.42 3.42 0 00-2.53.93 3.5 3.5 0 00-.92 2.56v5.56a3.51 3.51 0 00.92 2.56 3.42 3.42 0 002.53.93h5.14a.24.24 0 00.27-.18.14.14 0 000-.09v-.56a.24.24 0 00-.21-.27h-5.06a2.28 2.28 0 01-1.72-.63 2.5 2.5 0 01-.59-1.78v-1.9a.19.19 0 01.15-.22H575a.26.26 0 00.29-.22v-3.2a3.23 3.23 0 00-2.93-3.49h-.54m2.24 5.7c0 .15-.07.23-.22.23h-6.13c-.15 0-.22-.08-.22-.23v-2.19a2.5 2.5 0 01.59-1.78 2.28 2.28 0 011.72-.63h2a2.24 2.24 0 011.72.63 2.45 2.45 0 01.59 1.78zM589.35 39.57l-8.84-5.45c-.23-.12-.44 0-.44.23v.34c0 .37.11.43.25.52l8.22 5.13-8.22 5.12c-.14.09-.25.15-.25.52v.35c0 .23.21.35.44.23l8.84-5.46a.62.62 0 00.29-.59v-.35a.63.63 0 00-.29-.59M523.92 58.06h-1a1.56 1.56 0 01-1.15-.4 1.5 1.5 0 01-.4-1.14v-3a1.5 1.5 0 01.4-1.14 1.57 1.57 0 011.15-.39h1a1.54 1.54 0 011.14.4 1.47 1.47 0 01.41 1.13V54a.19.19 0 01-.17.21h-.83c-.13 0-.19-.07-.19-.21v-.38a.61.61 0 00-.13-.43.57.57 0 00-.43-.13h-.64a.59.59 0 00-.42.13.61.61 0 00-.13.43v2.88a.66.66 0 00.13.43.63.63 0 00.42.12h.64a.46.46 0 00.56-.33.41.41 0 000-.22v-.39c0-.14.06-.21.19-.21h.79a.19.19 0 01.21.17v.48a1.51 1.51 0 01-.41 1.14 1.54 1.54 0 01-1.14.4M528.7 58.06h-.84a1.56 1.56 0 01-1.15-.4 1.5 1.5 0 01-.4-1.14v-1.73a1.54 1.54 0 01.4-1.14 1.57 1.57 0 011.15-.39h.84a1.54 1.54 0 011.14.4 1.47 1.47 0 01.41 1.13v1.73a1.51 1.51 0 01-.41 1.14 1.54 1.54 0 01-1.14.4m-.66-1h.48a.66.66 0 00.43-.12.59.59 0 00.13-.42v-1.66a.62.62 0 00-.08-.4.66.66 0 00-.43-.13H528a.46.46 0 00-.54.36.61.61 0 000 .19v1.58a.45.45 0 00.34.54.34.34 0 00.2 0M533 58.06h-.39a1.44 1.44 0 01-1.1-.4 1.63 1.63 0 01-.37-1.14v-1.73a1.68 1.68 0 01.37-1.14 1.46 1.46 0 011.1-.39h.39a1.3 1.3 0 01.55.12.74.74 0 01.37.39v-2.13c0-.13.06-.2.19-.2h.8a.18.18 0 01.2.16v6.26a.18.18 0 01-.16.2h-.84c-.13 0-.19-.07-.19-.2v-.31a.69.69 0 01-.37.38 1.17 1.17 0 01-.55.13m1-1.75V55c0-.48-.22-.72-.65-.72h-.43a.59.59 0 00-.42.13.66.66 0 00-.12.43v1.61a.66.66 0 00.12.43.58.58 0 00.42.12h.43c.43 0 .65-.24.65-.71M536.19 52.46v-.82a.17.17 0 01.15-.19h.86c.13 0 .19.06.19.18v.83a.17.17 0 01-.15.19h-.86a.17.17 0 01-.19-.15m0 5.41v-4.45a.17.17 0 01.15-.19h.85c.13 0 .2.06.2.19V58a.19.19 0 01-.15 0h-.81a.18.18 0 01-.2-.16M539.47 58.06h-.8a.18.18 0 01-.2-.16v-4.44a.18.18 0 01.16-.2h.84a.18.18 0 01.2.16v.35a.89.89 0 01.93-.51h.3a1.34 1.34 0 011.49 1.15 1.6 1.6 0 010 .38v3.07a.18.18 0 01-.16.2h-.84a.18.18 0 01-.2-.16v-3a.57.57 0 00-.13-.43.56.56 0 00-.43-.13h-.33c-.44 0-.65.24-.65.72v2.85a.18.18 0 01-.16.2M545.09 57.84h-.31a1.44 1.44 0 01-1.1-.39 1.59 1.59 0 01-.37-1.14v-1.52a1.54 1.54 0 01.4-1.14 1.57 1.57 0 011.15-.39H547c.14 0 .2.06.2.19v4.65a1.47 1.47 0 01-.41 1.13 1.53 1.53 0 01-1.14.39h-1.81a.15.15 0 01-.19-.09.17.17 0 010-.1v-.65a.17.17 0 01.15-.19h1.65a.61.61 0 00.43-.13.59.59 0 00.12-.46v-.72a.74.74 0 01-.37.39 1.17 1.17 0 01-.55.13m1-1.75V54.4a.1.1 0 00-.09-.11h-.91a.59.59 0 00-.42.13.66.66 0 00-.13.43v1.4a.66.66 0 00.13.43.58.58 0 00.42.12h.35c.43 0 .65-.24.65-.71M550.29 56.52v-.19a.18.18 0 01.16-.2h.84a.18.18 0 01.2.16v.11a.66.66 0 00.14.49.8.8 0 00.52.13h.44a.71.71 0 00.51-.14.72.72 0 00.15-.53v-.11a.47.47 0 00-.22-.42 1.22 1.22 0 00-.55-.17 5.52 5.52 0 01-.71-.11 4.44 4.44 0 01-.71-.21 1 1 0 01-.55-.5 1.86 1.86 0 01-.23-.95v-.33a1.5 1.5 0 01.42-1.14 1.56 1.56 0 011.15-.4h.94a1.6 1.6 0 011.16.4 1.55 1.55 0 01.41 1.14v.18a.18.18 0 01-.16.2h-.84a.18.18 0 01-.2-.16v-.1a.69.69 0 00-.14-.5.72.72 0 00-.51-.13h-.37a.7.7 0 00-.52.15.89.89 0 00-.14.57v.18c0 .29.26.46.77.5a4.58 4.58 0 011.42.32 1.29 1.29 0 01.55.51 1.69 1.69 0 01.22.93v.32a1.47 1.47 0 01-.41 1.13 1.57 1.57 0 01-1.15.41h-1a1.57 1.57 0 01-1.15-.41 1.52 1.52 0 01-.42-1.13M558.48 57.22v.65a.19.19 0 010 .15h-1.56a1.56 1.56 0 01-1.15-.4 1.5 1.5 0 01-.4-1.14v-1.73a1.54 1.54 0 01.4-1.14 1.57 1.57 0 011.15-.39h1.41a.17.17 0 01.19.15v.69a.15.15 0 01-.09.19h-1.32a.64.64 0 00-.42.13.66.66 0 00-.12.43v1.65a.66.66 0 00.12.43.63.63 0 00.42.12h1.22c.13 0 .19.07.19.2M560.29 58.06h-.8a.18.18 0 01-.2-.16v-6.26a.18.18 0 01.16-.2h.84a.18.18 0 01.2.16v2.17a.86.86 0 01.92-.51h.3a1.34 1.34 0 011.49 1.15 1.6 1.6 0 010 .38v3.07a.18.18 0 01-.16.2h-.84a.18.18 0 01-.2-.16v-3a.57.57 0 00-.13-.43.54.54 0 00-.42-.13h-.34c-.43 0-.65.24-.65.72v2.85a.18.18 0 01-.16.2M566.51 58.06h-.84a1.54 1.54 0 01-1.14-.4 1.51 1.51 0 01-.41-1.14v-1.73a1.55 1.55 0 01.41-1.14 1.53 1.53 0 011.14-.39h.84a1.56 1.56 0 011.15.4 1.47 1.47 0 01.41 1.13v1.73a1.41 1.41 0 01-1.56 1.54m-.66-1h.48a.6.6 0 00.43-.12.54.54 0 00.13-.42v-1.66a.54.54 0 00-.13-.42.61.61 0 00-.43-.13h-.48a.46.46 0 00-.54.36.61.61 0 000 .19v1.6a.45.45 0 00.34.54.34.34 0 00.2 0M571.3 58.06h-.83a1.56 1.56 0 01-1.15-.4 1.51 1.51 0 01-.41-1.14v-1.73a1.55 1.55 0 01.41-1.14 1.57 1.57 0 011.15-.39h.83a1.56 1.56 0 011.15.4 1.47 1.47 0 01.41 1.13v1.73a1.41 1.41 0 01-1.56 1.54m-.65-1h.47a.6.6 0 00.43-.12.54.54 0 00.13-.42v-1.66a.54.54 0 00-.13-.42.57.57 0 00-.43-.13h-.47a.57.57 0 00-.43.13.58.58 0 00-.12.42v1.6a.58.58 0 00.12.42.6.6 0 00.43.12M574.84 58.06H574a.18.18 0 01-.2-.16v-6.26a.18.18 0 01.16-.2h.84a.18.18 0 01.2.16v6.26a.18.18 0 01-.16.2" class="cls-3"/></svg>